<svg fill="none" xmlns="http://www.w3.org/2000/svg" viewBox="0 0 30 30"><path d="M23.438 0a6.57 6.57 0 00-6.563 6.563c0 3.367 5.265 9.331 5.865 10a.942.942 0 00.698.312c.266 0 .519-.114.697-.311.6-.67 5.865-6.634 5.865-10.002A6.57 6.57 0 0023.437 0zm0 9.375a2.814 2.814 0 010-5.625 2.814 2.814 0 010 5.625zM.589 11.014a.94.94 0 00-.589.872v17.177a.94.94 0 001.286.87l8.089-3.237V7.5L.589 11.014z" fill="inherit"><path d="M25.53 17.816a2.82 2.82 0 01-2.093.934 2.82 2.82 0 01-2.092-.934 39.526 39.526 0 01-.72-.823V30l8.786-3.514a.935.935 0 00.589-.87V11.833c-1.536 2.6-3.589 5-4.47 5.983zM15.59 9.236L11.25 7.5v19.196l7.5 3V14.64c-1.198-1.614-2.449-3.559-3.16-5.404z" fill="inherit"/></svg>
