<svg width="31" height="31" fill="none" xmlns="http://www.w3.org/2000/svg"><g clip-path="url(#clip0)" fill="#9B6E46"><path d="M30.97 9.114c-.073-1.647-.34-2.78-.72-3.76a7.565 7.565 0 00-1.794-2.75A7.63 7.63 0 0025.713.818C24.726.436 23.6.17 21.953.097 20.293.018 19.766 0 15.557 0 11.35 0 10.822.018 9.17.09 7.52.164 6.389.43 5.408.812a7.564 7.564 0 00-2.75 1.793A7.632 7.632 0 00.872 5.347c-.382.988-.648 2.114-.72 3.76-.08 1.66-.098 2.187-.098 6.396s.019 4.736.091 6.389c.073 1.647.34 2.78.721 3.76a7.645 7.645 0 001.792 2.75 7.63 7.63 0 002.744 1.787c.987.381 2.113.647 3.76.72 1.654.073 2.18.09 6.39.09 4.208 0 4.735-.017 6.389-.09 1.647-.073 2.78-.339 3.76-.72a7.93 7.93 0 004.536-4.536c.381-.987.648-2.114.72-3.761.073-1.653.091-2.18.091-6.389s-.006-4.736-.078-6.389zm-2.792 12.657c-.067 1.514-.321 2.331-.533 2.876a5.142 5.142 0 01-2.943 2.944c-.545.212-1.369.466-2.877.532-1.635.073-2.125.091-6.261.091-4.137 0-4.633-.018-6.262-.09-1.514-.067-2.332-.321-2.877-.533a4.77 4.77 0 01-1.78-1.157 4.82 4.82 0 01-1.157-1.78c-.212-.546-.466-1.37-.533-2.877-.073-1.635-.09-2.126-.09-6.262 0-4.136.017-4.633.09-6.262.067-1.514.321-2.331.533-2.876a4.712 4.712 0 011.163-1.78 4.812 4.812 0 011.78-1.157c.545-.212 1.369-.466 2.877-.533 1.635-.073 2.126-.091 6.261-.091 4.143 0 4.633.018 6.262.09 1.514.068 2.332.322 2.877.534a4.767 4.767 0 011.78 1.156 4.818 4.818 0 011.157 1.78c.212.546.466 1.37.533 2.877.073 1.636.09 2.126.09 6.262 0 4.136-.017 4.62-.09 6.256z"/><path d="M15.557 7.54a7.965 7.965 0 00-7.963 7.963 7.965 7.965 0 007.963 7.963 7.965 7.965 0 007.964-7.963 7.965 7.965 0 00-7.964-7.963zm0 13.129a5.167 5.167 0 11.002-10.333 5.167 5.167 0 01-.002 10.333zM25.695 7.225a1.86 1.86 0 11-3.718 0 1.86 1.86 0 013.718 0z"/></g><defs><clipPath id="clip0"><path fill="#fff" d="M0 0h31v31H0z"/></clipPath></defs></svg>
