<svg fill="none" xmlns="http://www.w3.org/2000/svg" viewBox="0 0 30 30"><g clip-path="url(#clip0)"><path d="M26.344 20.348l-3.496-3.49c-1.248-1.245-3.371-.747-3.87.873-.375 1.121-1.624 1.744-2.748 1.495-2.497-.623-5.868-3.863-6.492-6.48-.375-1.12.374-2.367 1.498-2.74 1.623-.499 2.123-2.617.874-3.863L8.614 2.654c-.999-.872-2.497-.872-3.371 0L2.87 5.022c-2.372 2.492.25 9.095 6.118 14.952 5.869 5.856 12.487 8.597 14.984 6.105l2.372-2.367c.874-.997.874-2.492 0-3.364z" fill="inherit"/></g><defs><clipPath id="clip0"><path fill="inherit" d="M0 0h30v30H0z"/></clipPath></defs></svg>
