<svg width="169" height="175" viewBox="0 0 169 175" fill="none" xmlns="http://www.w3.org/2000/svg">
<g clip-path="url(#clip0)">
<path d="M40.5233 6.13965C40.5359 5.75973 42.061 5.23796 43.6163 4.82004C45.0354 4.44011 46.3361 4.14883 46.4975 4.53636L52.0103 18.1682C52.4918 19.3358 53.3564 19.9994 54.5789 19.9589C54.7019 19.952 54.8233 19.9889 54.922 20.063C55.0206 20.1371 55.0901 20.2437 55.1184 20.3642C55.1375 20.4301 55.1426 20.4994 55.1334 20.5674C55.1243 20.6355 55.101 20.7009 55.0651 20.7593C55.0293 20.8178 54.9816 20.8681 54.9252 20.9069C54.8688 20.9457 54.8049 20.9722 54.7377 20.9847L46.326 23.239C46.2649 23.2615 46.1998 23.2707 46.1349 23.2659C46.07 23.2612 46.0068 23.2426 45.9496 23.2115C45.8924 23.1803 45.8424 23.1373 45.803 23.0853C45.7636 23.0333 45.7357 22.9734 45.7211 22.9097C45.6948 22.7807 45.7111 22.6466 45.7675 22.5278C45.8239 22.4089 45.9173 22.3118 46.0336 22.2511C47.0016 21.7902 47.2209 21.0962 46.926 19.9918C46.8327 19.6423 46.6386 19.232 46.5126 18.8647L42.7491 8.25206C42.734 8.19887 42.7264 8.17354 42.7012 8.1786C42.676 8.18367 42.6533 8.22166 42.6685 8.27485L42.2223 24.1077C42.1996 24.3458 40.7502 24.936 39.7847 25.1943C38.8193 25.4527 37.3043 25.6857 37.1531 25.4476L29.7018 11.7702C29.6615 11.7246 29.6539 11.6967 29.6262 11.7043C29.5985 11.7119 29.5808 11.7449 29.5934 11.7981C29.7371 12.7707 29.8732 13.7129 29.9892 14.6906L31.1462 23.3783C31.1923 23.7673 31.2664 24.1525 31.368 24.5307C31.6755 25.6857 32.3763 25.8453 33.2812 25.6882C33.4112 25.6619 33.5462 25.6881 33.6571 25.7611C33.7679 25.8341 33.8457 25.9481 33.8736 26.0783C33.8954 26.1418 33.9034 26.2092 33.8969 26.2761C33.8905 26.3429 33.8699 26.4076 33.8364 26.4657C33.803 26.5238 33.7574 26.5741 33.703 26.613C33.6485 26.6519 33.5863 26.6786 33.5207 26.6912L28.1087 28.1147C28.0466 28.1403 27.9798 28.1522 27.9128 28.1495C27.8457 28.1468 27.78 28.1296 27.7202 28.0991C27.6604 28.0685 27.6078 28.0254 27.5661 27.9726C27.5244 27.9198 27.4945 27.8585 27.4785 27.793C27.4431 27.6593 27.458 27.5172 27.5203 27.3939C27.5826 27.2705 27.688 27.1745 27.8163 27.1244C28.7969 26.6026 29.1926 25.6046 29.0237 24.323L27.2088 9.70085C27.1685 9.33612 28.8019 8.78396 30.4353 8.34577C31.8016 7.97851 33.0216 7.71003 33.2081 8.09249L40.0973 21.0734C40.1528 21.1747 40.1855 21.1949 40.241 21.1798C40.2964 21.1646 40.3141 21.1316 40.3116 21.0151L40.5233 6.13965Z" fill="#442203"/>
<path d="M67.1246 9.99719C67.2607 10.9901 66.8296 11.95 65.4458 12.4743C63.8249 13.1177 59.1767 14.341 58.1608 14.4803C58.0499 14.4803 58.002 14.5563 58.0222 14.6956C58.2106 15.1242 58.4716 15.5167 58.7935 15.8557C59.9329 17.0487 61.6445 17.4919 63.3485 17.2589C64.8593 17.0531 66.2415 16.2947 67.2304 15.1288C67.2662 15.0695 67.315 15.0193 67.3732 14.982C67.4313 14.9446 67.4971 14.9212 67.5657 14.9135C67.671 14.8959 67.7789 14.9209 67.8658 14.9831C67.9527 15.0453 68.0116 15.1396 68.0295 15.2453C68.0412 15.3191 68.0412 15.3943 68.0295 15.4682C67.3413 18.2543 64.6366 20.4022 61.5311 20.8251C57.818 21.3013 54.5335 19.3586 53.9991 15.382C53.384 10.8229 56.661 7.11987 61.0017 6.52971C64.4122 6.06367 66.8246 7.76068 67.1246 9.99719ZM57.2483 12.6921C57.2655 12.8412 57.3036 12.987 57.3618 13.1253C57.3744 13.1801 57.4078 13.2279 57.4548 13.2586C57.5018 13.2893 57.5588 13.3005 57.6138 13.2899C58.2717 13.1987 63.0712 11.6461 63.0309 11.3421C62.9376 10.6532 61.7453 8.64971 59.6002 8.94099C57.755 9.19174 57.0063 10.8913 57.2483 12.6921Z" fill="#442203"/>
<path d="M80.2299 5.1316C83.4186 5.03029 84.7017 7.05404 84.7949 10.0048L84.7622 15.2174C84.805 16.5548 84.921 17.6388 86.0099 17.8263C86.1291 17.84 86.239 17.8975 86.3186 17.9877C86.3982 18.078 86.4417 18.1946 86.441 18.3151C86.4461 18.3831 86.4375 18.4514 86.4158 18.516C86.394 18.5805 86.3595 18.64 86.3143 18.6909C86.2691 18.7417 86.2142 18.7829 86.1528 18.8119C86.0914 18.8409 86.0248 18.8571 85.957 18.8597L78.725 19.0876C78.6633 19.0944 78.6009 19.0872 78.5424 19.0666C78.4838 19.046 78.4306 19.0125 78.3866 18.9685C78.3427 18.9245 78.309 18.8713 78.2882 18.8125C78.2673 18.7538 78.2598 18.6912 78.2662 18.6292C78.2606 18.5033 78.2966 18.3791 78.3687 18.276C78.4407 18.1729 78.5448 18.0967 78.6645 18.0593C79.9803 17.5705 80.0509 16.2306 80.066 14.9211L80.0938 11.3751C80.0509 10.0099 79.824 8.1229 77.941 8.18116C75.8892 8.24448 75.627 10.5114 75.6094 12.6035V15.8354C75.6497 17.0892 75.8614 17.9453 76.847 18.115C76.9635 18.1308 77.0698 18.1902 77.1446 18.2813C77.2193 18.3724 77.2571 18.4885 77.2504 18.6064C77.2555 18.6744 77.2469 18.7427 77.2252 18.8072C77.2034 18.8718 77.1689 18.9313 77.1237 18.9822C77.0785 19.033 77.0236 19.0742 76.9622 19.1032C76.9008 19.1322 76.8342 19.1484 76.7664 19.151L69.5344 19.3789C69.4725 19.3842 69.4102 19.3759 69.3517 19.3547C69.2933 19.3335 69.2401 19.2999 69.1958 19.2561C69.1515 19.2123 69.1172 19.1594 69.0951 19.101C69.0731 19.0427 69.0638 18.9802 69.0681 18.9179C69.0624 18.7921 69.0984 18.6679 69.1705 18.5648C69.2426 18.4616 69.3466 18.3854 69.4663 18.348C70.7519 17.7781 70.8779 16.4915 70.8956 15.2098L70.9284 10.1061C70.8956 9.04993 70.3814 8.53576 69.0504 8.58641C68.9743 8.5264 68.9133 8.44933 68.8721 8.36137C68.831 8.27341 68.8109 8.177 68.8135 8.07984C68.8066 7.99571 68.8165 7.91104 68.8425 7.83078C68.8686 7.75052 68.9103 7.67627 68.9652 7.61238C69.0201 7.54848 69.0871 7.49621 69.1623 7.45862C69.2375 7.42103 69.3195 7.39887 69.4033 7.39344C70.7126 7.1216 71.9642 6.62094 73.1012 5.91425C73.4934 5.59992 73.97 5.41031 74.47 5.36969C74.6553 5.36145 74.8403 5.39134 75.0137 5.45755C75.1871 5.52375 75.3452 5.62487 75.4783 5.75468L75.4001 8.57375C75.4001 8.65733 75.4329 8.68266 75.4606 8.68266C75.4884 8.68266 75.5136 8.65227 75.5413 8.59654C76.4437 6.44868 78.2637 5.19239 80.2299 5.1316Z" fill="#442203"/>
<path d="M98.4396 6.31696C98.5721 6.37571 98.6959 6.4524 98.8077 6.54492C98.8858 6.60824 98.911 6.63863 98.9388 6.64117C98.9531 6.64088 98.9668 6.63571 98.9778 6.6265C98.9888 6.61729 98.9964 6.6046 98.9992 6.59051C98.984 6.35774 98.984 6.12421 98.9992 5.89144L99.1404 4.28055C99.2589 2.94826 98.3413 2.61393 97.4566 2.53541C97.3903 2.46248 97.3418 2.37515 97.3146 2.28025C97.2875 2.18535 97.2826 2.08544 97.3003 1.98831C97.3173 1.8323 97.3921 1.68841 97.5097 1.5852C97.6274 1.48198 97.7794 1.42697 97.9355 1.43108C99.2236 1.35003 100.857 0.823198 101.87 0.382482C102.292 0.114157 102.785 -0.0192035 103.284 2.03886e-05C103.698 0.034127 104.086 0.213481 104.381 0.506591L102.518 15.8836C102.397 17.2716 102.564 18.2087 103.365 18.5886C103.617 18.6672 103.774 18.7102 103.932 18.7786C104.001 18.8006 104.06 18.845 104.1 18.9047C104.14 18.9644 104.159 19.036 104.154 19.1079C104.143 19.188 104.114 19.2647 104.071 19.3329C104.027 19.401 103.97 19.459 103.902 19.503C103.073 20.0729 101.646 20.4478 100.239 20.3236C98.7749 20.1919 97.633 19.2497 97.7868 17.502C97.7999 17.307 97.8268 17.1132 97.8674 16.922C97.8674 16.8663 97.8473 16.8359 97.8195 16.8334C97.8051 16.8332 97.7911 16.8382 97.78 16.8475C97.7689 16.8567 97.7615 16.8697 97.7591 16.884C96.5214 18.9103 94.4569 19.8905 92.4151 19.7082C88.6567 19.3713 86.9981 16.1166 87.2829 12.8973C87.7039 8.12542 91.5681 5.33675 96.1281 5.74454C96.9242 5.80972 97.7046 6.00299 98.4396 6.31696V6.31696ZM91.9563 11.6106C91.7043 14.5234 93.1285 16.6105 94.9232 16.7701C96.6096 16.922 97.7817 15.6277 98.1422 12.8061L98.6035 9.18415C98.6131 9.11247 98.6031 9.03953 98.5747 8.97307C98.5463 8.90662 98.5005 8.84914 98.4422 8.80676C97.7523 8.11349 96.8482 7.6767 95.8786 7.56819C93.6679 7.37063 92.2008 8.86501 91.9563 11.6106Z" fill="#442203"/>
<path d="M102.022 23.0237C102.178 22.2866 102.485 21.8966 103 22.0105C103.252 22.0612 103.456 22.2765 103.768 22.5424C104.794 23.3276 106.037 24.0444 107.361 24.3154C108.013 24.4522 108.47 24.0368 108.606 23.3833C108.651 23.1655 108.555 22.4031 108.296 20.3845L106.972 10.172C106.783 8.76624 106.075 8.36099 105.684 8.19382C105.57 8.15145 105.475 8.06918 105.417 7.96215C105.359 7.85512 105.341 7.73052 105.367 7.61126C105.38 7.54027 105.408 7.47286 105.449 7.41334C105.489 7.35381 105.542 7.30349 105.603 7.26559C105.664 7.22768 105.733 7.20303 105.804 7.19321C105.875 7.18338 105.948 7.18861 106.017 7.20854L113.67 8.82197C114.023 8.89542 114.078 9.1639 114.023 9.43745C114.019 9.50137 114.001 9.56369 113.971 9.62001C113.941 9.67634 113.898 9.72529 113.847 9.76345C113.796 9.8016 113.737 9.82801 113.675 9.84083C113.612 9.85365 113.548 9.85256 113.486 9.83764C112.672 9.66541 112.2 10.02 112.064 10.676C112.031 10.8615 112.02 11.0502 112.031 11.2383C112.031 12.5503 112.435 15.1389 112.452 16.4231C112.474 17.7218 112.411 19.0206 112.263 20.311L112.372 20.3338L117.459 12.3832C117.58 12.2113 117.66 12.0137 117.693 11.8057C117.852 11.0458 117.063 10.6178 116.065 10.3797C116 10.3692 115.939 10.3449 115.885 10.3086C115.83 10.2722 115.784 10.2246 115.75 10.1689C115.716 10.1132 115.693 10.0508 115.685 9.98575C115.677 9.92074 115.682 9.85469 115.702 9.79205C115.708 9.72342 115.728 9.65691 115.762 9.59711C115.796 9.53731 115.843 9.48564 115.899 9.44566C115.955 9.40569 116.018 9.37837 116.086 9.36558C116.153 9.35279 116.222 9.35485 116.289 9.3716L122.205 10.6178C122.318 10.6618 122.413 10.7442 122.472 10.8506C122.531 10.957 122.552 11.0808 122.53 11.2008C122.508 11.3207 122.445 11.4293 122.352 11.5078C122.26 11.5863 122.142 11.6298 122.021 11.6309C121.517 11.6106 120.594 11.8133 119.808 12.872L115.248 18.9787C114.345 20.1818 113.325 21.6762 112.223 23.0313C110.106 25.5641 108.19 27.9602 104.799 27.246C102.216 26.7065 101.676 24.6852 102.022 23.0237Z" fill="#442203"/>
<path d="M125.293 11.8259C125.056 11.7499 124.842 11.598 124.925 11.332C125.008 11.0661 125.215 11.0433 125.487 11.0104C126.45 10.9014 127.025 10.3518 127.231 9.68567C127.461 8.94101 127.171 8.09251 126.599 7.2136C126.503 7.11526 126.434 6.99346 126.399 6.86021C126.364 6.72696 126.364 6.58687 126.4 6.45375C126.473 6.21566 126.679 6.0181 127.143 6.01556C127.836 6.02823 129.412 5.96744 130.085 6.1726C130.985 6.45375 131.499 8.36352 131.073 9.74646C130.335 12.14 127.36 12.4693 125.293 11.8259Z" fill="#442203"/>
<path d="M140.972 20.0957C140.748 20.6656 140.372 21.3267 140.133 21.8687C140.114 21.9221 140.083 21.9706 140.044 22.0107C140.004 22.0509 139.956 22.0816 139.902 22.1008C139.849 22.1199 139.793 22.127 139.737 22.1215C139.681 22.1159 139.626 22.0979 139.578 22.0688C139.505 22.0298 139.443 21.9724 139.399 21.9022C139.355 21.832 139.33 21.7515 139.326 21.6686C138.895 19.6423 137.345 17.7427 135.545 17.0284C134.668 16.6814 133.972 16.8562 133.74 17.4539C133.425 18.2568 134.816 19.346 136.064 20.3464C137.619 21.6129 139.018 22.9224 139.147 24.6523C139.158 25.2064 139.055 25.7568 138.842 26.2683C138.583 26.9778 138.105 27.5857 137.478 28.0033C135.694 29.214 132.911 29.0164 130.672 28.1274C127.302 26.7647 127.156 25.2399 127.917 23.2947C128.126 22.7277 128.372 22.1751 128.653 21.6407C128.673 21.5885 128.705 21.5412 128.745 21.502C128.785 21.4629 128.833 21.4328 128.885 21.4139C128.938 21.3949 128.994 21.3875 129.049 21.3921C129.105 21.3967 129.159 21.4133 129.208 21.4406C129.278 21.4679 129.34 21.5143 129.386 21.5747C129.432 21.6351 129.46 21.707 129.467 21.7826C129.936 24.242 131.89 26.3417 133.773 27.0762C134.625 27.4131 135.285 27.2535 135.515 26.6558C135.87 25.749 134.625 24.7485 133.309 23.6898C131.819 22.4715 130.365 21.0886 130.246 19.3358C130.217 18.7788 130.302 18.2216 130.498 17.6996C130.774 17.0095 131.245 16.4153 131.852 15.9899C133.508 14.878 136.094 14.9768 138.262 15.8278C141.542 17.1171 141.61 18.462 140.972 20.0957Z" fill="#442203"/>
<path d="M128.961 77.8093C116.181 45.1101 79.8064 86.421 72.5542 85.3471C47.6822 82.0721 80.9558 46.8477 68.3749 35.3891C68.3749 35.3891 37.874 22.8033 29.9538 33.573C22.0337 44.3427 11.066 64.7068 30.0673 99.45C46.815 130.075 95.7551 141.749 138.04 132.354C182.327 122.527 137.967 100.856 128.961 77.8093Z" fill="url(#paint0_linear)"/>
<path d="M88.8306 76.1224C102.98 64.4232 116.236 66.1962 116.236 66.1962C92.6949 54.1195 86.2897 37.8029 65.8894 36.3769C36.4599 34.3202 25.7291 63.7013 25.7291 63.7013C25.7291 63.7013 34.1887 71.1327 30.7706 90.8231C28.1667 105.83 33.1451 125.797 51.9069 86.7199C51.9069 86.7199 56.0586 68.8607 64.2762 80.8766C64.2762 80.8766 66.7062 85.3572 72.5543 85.3471C76.9857 85.3395 86.0856 78.3944 88.8306 76.1224Z" fill="#B78E58"/>
<path d="M24.3755 59.6336C26.1627 64.175 26.0468 64.1395 25.2906 68.6176C24.5343 73.0957 27.6777 79.1543 28.0104 83.3082C28.3432 87.4621 30.8513 88.7513 28.2096 95.3139C25.5678 101.877 31.0328 110.724 32.999 111.068C34.9651 111.413 39.1596 112.142 41.1939 110.389C43.2281 108.637 45.8774 104.962 46.3235 100.704C46.7697 96.4461 46.9411 90.5268 48.5418 88.4296C50.1425 86.3324 48.9955 84.8456 50.4979 84.2707C52.0002 83.6957 55.2066 77.204 55.2646 71.4595C55.3226 65.715 53.5454 62.4223 54.8537 60.3858C56.162 58.3494 52.5119 44.9354 52.5119 44.9354C52.5119 44.9354 50.1425 33.5122 42.4441 32.5244C34.7458 31.5366 27.2668 44.6821 24.8923 51.3714C22.5177 58.0607 24.3755 59.6336 24.3755 59.6336Z" fill="#C49C62"/>
<path d="M43.8608 99.4348C43.7625 100.481 43.7221 101.372 43.4171 102.079C42.2072 104.903 41.766 105.015 41.9778 105.012C42.9861 105 44.4506 103.254 45.1942 100.757C45.9378 98.2596 44.9825 97.4921 43.7776 97.5377C42.5727 97.5833 42.8323 98.7814 42.8323 98.7814C42.8323 98.7814 43.9767 98.1507 43.8608 99.4348Z" fill="#9B6E46"/>
<path d="M30.7807 97.363C30.1177 96.4461 28.7641 97.5656 28.512 98.8827C28.2599 100.2 29.2682 102.91 30.7807 103.895C32.2931 104.88 29.3514 101.963 30.0774 99.445C30.8033 96.9273 31.547 98.4192 30.7807 97.363Z" fill="#9B6E46"/>
<path d="M27.0399 76.7607C27.1054 76.5201 28.265 80.0788 29.432 77.3534C29.432 77.3534 30.8865 85.6612 30.7706 90.8231C30.7706 90.8231 26.7197 77.9765 27.0399 76.7607Z" fill="#B78E58"/>
<path d="M36.117 76.8646C37.6421 81.3933 36.0465 85.5675 36.5153 89.6276C36.9842 93.6878 34.5315 97.092 35.8624 97.2389C37.1934 97.3858 38.8369 96.0915 37.2564 88.2954C35.9708 81.9404 41.8189 72.5917 42.1996 66.5989C42.3382 64.4257 41.0098 58.7825 39.4772 58.3798C38.3605 58.0885 37.1253 62.3539 36.3111 64.0458C35.1491 66.4545 35.5423 75.165 36.117 76.8646Z" fill="url(#paint1_linear)"/>
<path d="M50.4399 78.7034C50.4399 78.7034 47.357 81.0058 47.6192 77.518C47.8813 74.0303 45.2598 91.6666 45.2598 91.6666C45.2598 91.6666 49.1694 79.6912 50.4399 78.7034Z" fill="#B78E58"/>
<path d="M55.6099 60.0565C55.6381 59.8346 55.6096 59.6091 55.5271 59.4014C55.4446 59.1936 55.3108 59.0103 55.1383 58.8689C54.9657 58.7275 54.7602 58.6326 54.5411 58.5931C54.3219 58.5536 54.0964 58.5708 53.8857 58.6432C52.0506 59.2713 49.6635 60.5226 50.1046 62.7084C50.7953 66.1835 54.9797 65.0716 55.3175 62.4045L55.6099 60.0565Z" fill="#442203"/>
<path d="M28.8523 60.9937C29.3565 57.0804 25.8451 55.4214 24.0755 55.4746C22.306 55.5278 23.1504 61.323 26.0266 61.6902C28.9027 62.0575 28.8523 60.9937 28.8523 60.9937Z" fill="#442203"/>
<path d="M28.7641 36.8277C30.1934 34.7584 31.9856 34.3253 32.8552 33.4945C33.7249 32.6637 35.0306 29.8066 41.9299 29.8978C48.8291 29.989 53.7572 30.6577 58.4104 31.6708C63.0637 32.684 66.3759 32.6662 68.2413 34.3607C70.1066 36.0552 84.2706 41.7516 88.087 45.7839C101.245 59.6842 82.7456 68.9367 82.7456 68.9367C79.4359 71.4822 74.5834 75.165 74.5003 80.3042C74.4625 82.7458 72.5744 77.3964 73.0231 71.9989C73.3256 68.344 75.6396 62.6274 73.9129 63.562C69.6277 65.8694 72.2896 67.3005 67.6817 72.9108C62.7436 78.9187 66.0256 66.5533 58.97 74.7369C55.6477 78.5894 57.6189 55.0643 54.2815 50.7863C49.9962 45.2874 45.3102 52.5922 47.8435 57.3362C49.7442 60.8822 50.6667 64.9931 47.8435 67.0345C46.9033 67.7159 41.6022 67.2473 40.2334 64.0382C38.8647 60.829 36.4876 64.1142 32.4192 56.622C32.4192 56.622 23.1177 41.7718 28.7515 36.8201" fill="#F2DDB3"/>
<path d="M52.9707 36.9214C51.675 36.0527 51.1054 35.3055 52.6153 34.1353C54.1252 32.9651 57.1526 30.8679 59.1011 27.8487C59.3734 27.4283 60.0766 26.5595 60.0867 26.1593C60.1497 23.7101 61.9117 24.5586 62.436 25.8554C63.2124 27.7728 63.6435 33.2817 61.1933 35.9513C58.7432 38.621 57.6366 43.631 56.5779 42.8762C55.4561 42.0859 55.6628 38.7349 52.9707 36.9214Z" fill="#9B6E46"/>
<path d="M31.5091 34.4468C35.1717 32.4712 32.409 32.4054 31.5091 28.1147C30.6092 23.8241 27.728 24.0394 28.2649 22.0941C28.8019 20.1489 26.5004 19.1357 24.7939 22.3702C23.0874 25.6047 22.7924 31.1719 26.3542 35.3663C29.916 39.5607 26.9718 36.8885 31.5091 34.4468Z" fill="#9B6E46"/>
<path d="M26.566 57.0425C27.418 56.9817 28.6708 59.5322 28.1616 59.6006C27.4483 59.6943 27.3021 59.0358 27.1533 58.5191C26.9718 57.9163 25.84 57.0931 26.566 57.0425Z" fill="#E8DAA3"/>
<path d="M54.9847 59.593C55.3023 59.4993 55.3376 60.4061 55.1813 61.2039C55.0604 61.8194 54.831 62.3969 54.5007 62.2424C54.0999 62.055 54.3445 61.328 54.5587 60.8873C54.8058 60.3782 54.652 59.6893 54.9847 59.593Z" fill="#E8DAA3"/>
<path d="M25.225 118.203C25.2855 117.55 27.9676 116.793 30.6874 116.223C33.1704 115.701 35.4415 115.326 35.681 116.012L43.8986 140.052C44.6195 142.111 46.0488 143.344 48.1611 143.385C48.3733 143.384 48.579 143.459 48.7418 143.595C48.9046 143.732 49.0141 143.922 49.051 144.132C49.078 144.248 49.0806 144.368 49.0585 144.485C49.0364 144.602 48.9901 144.713 48.9226 144.81C48.8551 144.908 48.7679 144.99 48.6667 145.052C48.5655 145.114 48.4525 145.153 48.3351 145.168L33.614 148.251C33.5069 148.283 33.3942 148.292 33.2833 148.278C33.1724 148.263 33.0658 148.226 32.9705 148.167C32.8753 148.108 32.7935 148.029 32.7306 147.936C32.6677 147.843 32.6252 147.738 32.6057 147.627C32.5728 147.402 32.6138 147.172 32.7225 146.972C32.8311 146.772 33.0016 146.612 33.2082 146.518C34.9197 145.817 35.3609 144.641 34.9727 142.719C34.8466 142.108 34.5492 141.384 34.3652 140.733L28.8801 122.071C28.8599 121.977 28.8498 121.929 28.8044 121.939C28.7591 121.949 28.7187 122.008 28.7389 122.101L26.4702 149.368C26.4072 149.775 23.8512 150.654 22.1623 151.009C20.428 151.371 17.8367 151.619 17.5998 151.176L6.04727 126.861C5.97921 126.777 5.96913 126.731 5.92375 126.739C5.87838 126.747 5.83805 126.807 5.85821 126.901C6.01198 128.591 6.15818 130.229 6.26405 131.929L7.43871 147.02C7.47941 147.695 7.56956 148.366 7.70843 149.028C8.12939 151.054 9.32422 151.394 10.9022 151.211C11.1278 151.181 11.3563 151.24 11.5396 151.376C11.7229 151.511 11.8468 151.713 11.8853 151.938C11.9171 152.05 11.9245 152.168 11.9072 152.283C11.8898 152.398 11.848 152.507 11.7846 152.605C11.7213 152.702 11.6378 152.785 11.5399 152.847C11.442 152.909 11.332 152.949 11.2173 152.964L1.72925 154.93C1.16713 155.049 0.771376 154.788 0.673067 154.314C0.625533 154.081 0.665314 153.838 0.784813 153.632C0.904312 153.425 1.09515 153.271 1.3209 153.197C3.06272 152.389 3.84163 150.702 3.67022 148.479L1.92335 123.097C1.89058 122.464 4.75917 121.666 7.61769 121.071C10.0099 120.564 12.1399 120.222 12.4272 120.898L23.0773 143.947C23.163 144.127 23.2185 144.165 23.3118 144.145C23.3597 144.145 23.4428 144.069 23.4529 143.869L25.225 118.203Z" fill="#442203"/>
<path d="M68.5185 128.246C68.5312 129.784 67.6943 131.159 65.4937 131.688C62.9074 132.352 55.6048 133.312 54.0319 133.324C53.8605 133.324 53.7798 133.413 53.7798 133.626C53.9831 134.314 54.3047 134.961 54.7301 135.538C56.2426 137.564 58.7507 138.578 61.3874 138.557C63.7208 138.534 65.964 137.649 67.6892 136.07C67.7555 135.988 67.8398 135.922 67.9356 135.878C68.0314 135.834 68.136 135.813 68.2413 135.817C68.3221 135.813 68.4029 135.825 68.479 135.853C68.5551 135.881 68.6249 135.924 68.6844 135.979C68.744 136.034 68.792 136.1 68.8259 136.174C68.8597 136.248 68.8786 136.328 68.8815 136.409C68.8879 136.525 68.8752 136.64 68.8437 136.751C67.2632 140.865 62.7385 143.59 57.934 143.636C52.1968 143.636 47.5738 140.049 47.5234 133.899C47.4629 126.853 53.1597 121.851 59.875 121.792C65.1483 121.739 68.4908 124.786 68.5185 128.246ZM52.9808 130.442C52.9782 130.672 53.0079 130.902 53.069 131.123C53.0779 131.208 53.1187 131.286 53.1829 131.341C53.2471 131.396 53.33 131.424 53.4143 131.42C54.4226 131.42 62.0302 129.981 62.0251 129.51C62.0251 128.444 60.5858 125.166 57.271 125.204C54.4226 125.207 52.9555 127.656 52.9808 130.442Z" fill="#442203"/>
<path d="M111.464 137.154C109.871 142.473 104.22 146.845 96.4735 144.499C89.7356 142.473 88.0366 137.407 89.4155 132.82C91.0086 127.501 96.7861 122.995 104.454 125.31C111.069 127.319 112.838 132.562 111.464 137.154ZM96.3399 131.402C95.1552 135.371 96.3248 141.197 99.8488 142.26C102.097 142.937 103.645 141.283 104.356 138.909C105.566 134.857 104.714 128.667 101.036 127.557C98.6313 126.833 97.1163 128.793 96.3374 131.402H96.3399Z" fill="#442203"/>
<path d="M83.5824 137.228C83.5396 138.679 83.6152 140.619 85.4478 140.893C85.6301 140.927 85.7925 141.03 85.9021 141.181C86.0116 141.331 86.0601 141.518 86.0376 141.703C86.0456 141.812 86.03 141.922 85.992 142.024C85.9539 142.126 85.8944 142.219 85.8173 142.297C85.7403 142.374 85.6476 142.433 85.5455 142.471C85.4434 142.509 85.3344 142.524 85.226 142.516L73.6659 142.177C73.2701 142.164 73.0155 141.893 72.9853 141.417C72.9886 141.218 73.0574 141.026 73.1811 140.871C73.3047 140.715 73.4761 140.605 73.6684 140.558C75.7883 140.004 76.1639 137.681 76.2622 135.789L77.4041 117.593C77.4545 115.921 76.6479 115.06 74.5885 114.999C74.4474 114.911 74.3338 114.785 74.2607 114.635C74.1876 114.485 74.158 114.317 74.1751 114.151C74.1751 113.756 74.4271 113.277 75.1657 113.211C77.1445 112.958 79.582 112.021 81.097 111.185C81.8532 110.767 82.5212 110.425 83.3102 110.455C83.9227 110.473 84.7042 110.709 85.1302 111.17L83.5824 137.228Z" fill="#442203"/>
<path d="M130.498 129.515C130.7 129.593 130.891 129.696 131.068 129.822C131.189 129.908 131.229 129.951 131.27 129.953C131.291 129.952 131.311 129.943 131.327 129.928C131.342 129.913 131.353 129.894 131.355 129.872C131.315 129.527 131.297 129.179 131.302 128.831L131.373 126.427C131.431 124.437 130.037 124.021 128.716 123.983C128.606 123.884 128.521 123.76 128.467 123.621C128.414 123.483 128.394 123.333 128.409 123.185C128.419 122.951 128.517 122.73 128.683 122.565C128.849 122.401 129.07 122.306 129.303 122.299C131.209 122.063 133.589 121.136 135.061 120.392C135.67 119.955 136.397 119.716 137.145 119.705C137.765 119.721 138.359 119.959 138.819 120.377L137.408 143.375C137.347 145.449 137.677 146.83 138.902 147.321C139.273 147.417 139.517 147.465 139.765 147.554C139.868 147.581 139.959 147.641 140.024 147.726C140.089 147.811 140.124 147.916 140.122 148.023C140.111 148.144 140.075 148.261 140.015 148.367C139.955 148.473 139.873 148.564 139.775 148.636C138.59 149.555 136.498 150.241 134.4 150.178C132.212 150.115 130.43 148.818 130.508 146.204C130.509 145.912 130.531 145.621 130.574 145.333C130.574 145.252 130.536 145.209 130.496 145.206C130.474 145.207 130.454 145.216 130.438 145.231C130.422 145.246 130.412 145.266 130.41 145.287C128.749 148.392 125.767 150.049 122.714 149.96C117.101 149.796 114.343 145.105 114.484 140.295C114.691 133.16 120.194 128.672 127.005 128.872C128.196 128.898 129.375 129.115 130.498 129.515V129.515ZM121.328 137.965C121.199 142.319 123.511 145.292 126.193 145.371C128.714 145.444 130.339 143.418 130.629 139.191L130.992 133.765C131 133.657 130.979 133.55 130.931 133.453C130.883 133.356 130.81 133.274 130.72 133.216C129.632 132.245 128.246 131.677 126.793 131.607C123.498 131.508 121.446 133.856 121.328 137.965Z" fill="#442203"/>
<path d="M147.349 155.163C147.112 154.018 147.307 153.271 148.106 153.104C148.481 153.025 148.91 153.2 149.515 153.385C151.446 153.866 153.631 154.114 155.678 153.686C156.686 153.476 157.064 152.599 156.855 151.581C156.785 151.242 156.18 150.219 154.569 147.503L146.404 133.773C145.272 131.886 144.022 131.746 143.379 131.746C143.189 131.764 143 131.71 142.848 131.594C142.695 131.479 142.591 131.311 142.555 131.123C142.507 130.69 142.638 130.267 143.223 130.143L155 127.676C155.544 127.562 155.791 127.909 155.877 128.332C155.958 128.715 155.877 129.133 155.373 129.236C154.113 129.49 153.676 130.3 153.886 131.318C153.954 131.603 154.055 131.879 154.188 132.139C155.01 134.003 157.163 137.445 157.969 139.267C158.725 141.04 159.572 143 160.102 144.925L160.268 144.889L162.537 130.389C162.602 130.069 162.594 129.738 162.512 129.421C162.26 128.233 160.891 128.125 159.335 128.408C159.238 128.432 159.136 128.434 159.037 128.415C158.939 128.396 158.845 128.356 158.763 128.298C158.681 128.24 158.612 128.164 158.561 128.077C158.511 127.99 158.479 127.893 158.468 127.793C158.38 127.37 158.509 126.944 159.053 126.83L168.133 124.926C168.592 124.829 168.889 125.166 168.967 125.592C168.995 125.681 169.005 125.775 168.997 125.869C168.989 125.962 168.962 126.053 168.919 126.136C168.876 126.219 168.816 126.293 168.745 126.353C168.673 126.413 168.59 126.458 168.501 126.486C167.775 126.769 166.603 127.636 166.146 129.634L163.482 141.164C162.953 143.443 162.436 146.207 161.718 148.833C160.303 153.777 159.076 158.369 153.855 159.471C149.895 160.294 147.886 157.751 147.349 155.163Z" fill="#442203"/>
<path d="M0 168.435H2.01659C3.44584 168.435 4.50203 168.941 4.50203 170.426C4.50203 171.867 3.4408 172.52 2.05692 172.52H1.13937V174.894H0V168.435ZM1.97121 171.603C2.92909 171.603 3.38534 171.218 3.38534 170.426C3.38534 169.633 2.8812 169.352 1.93088 169.352H1.13937V171.603H1.97121Z" fill="#C49C62"/>
<path d="M12.4852 168.435H13.8212L15.9184 174.894H14.711L13.733 171.457C13.5263 170.773 13.3397 170.036 13.1507 169.326H13.1078C12.9314 170.043 12.7423 170.773 12.5381 171.457L11.55 174.894H10.3879L12.4852 168.435ZM11.6281 172.234H14.653V173.133H11.6281V172.234Z" fill="#C49C62"/>
<path d="M23.9293 168.435H25.2653L27.3626 174.894H26.1551L25.1746 171.457C24.9704 170.773 24.7813 170.036 24.5923 169.326H24.5545C24.3755 170.043 24.189 170.773 23.9823 171.457L22.9967 174.894H21.8321L23.9293 168.435ZM23.0723 172.234H26.0972V173.133H23.0723V172.234Z" fill="#C49C62"/>
<path d="M34.0929 168.435H36.2607C37.5967 168.435 38.6277 168.909 38.6277 170.35C38.6277 171.74 37.5967 172.376 36.2607 172.376H35.2348V174.909H34.0929V168.435ZM36.1423 171.454C37.022 171.454 37.5034 171.084 37.5034 170.35C37.5034 169.615 37.022 169.352 36.1423 169.352H35.2348V171.454H36.1423ZM36.0465 172.064L36.8707 171.381L38.8873 174.894H37.6043L36.0465 172.064Z" fill="#C49C62"/>
<path d="M45.9101 168.435H47.6242C49.5954 168.435 50.76 169.501 50.76 171.639C50.76 173.777 49.5954 174.894 47.6847 174.894H45.9202L45.9101 168.435ZM47.5511 173.967C48.8442 173.967 49.5879 173.227 49.5879 171.639C49.5879 170.051 48.8442 169.359 47.5511 169.359H47.0469V173.964L47.5511 173.967Z" fill="#C49C62"/>
<path d="M58.0499 168.435H61.9218V169.397H59.1918V171.054H61.5059V172.019H59.1943V173.931H62.01V174.894H58.0499V168.435Z" fill="#C49C62"/>
<path d="M69.3378 168.435H70.5074L72.5064 172.064L73.1719 173.445H73.2097C73.1542 172.776 73.066 171.958 73.066 171.239V168.435H74.1499V174.894H72.9778L70.9813 171.256L70.3285 169.871H70.2881C70.3436 170.555 70.4343 171.332 70.4343 172.052V174.881H69.3504L69.3378 168.435Z" fill="#C49C62"/>
<path d="M81.4449 171.674C81.4449 169.559 82.7632 168.303 84.3891 168.303C84.7371 168.306 85.0808 168.38 85.3994 168.52C85.718 168.661 86.0046 168.865 86.2418 169.121L85.6318 169.858C85.4779 169.686 85.2905 169.547 85.081 169.451C84.8715 169.355 84.6446 169.303 84.4143 169.299C83.3682 169.299 82.617 170.188 82.617 171.639C82.617 173.09 83.3077 174.005 84.3815 174.005C84.6443 174.001 84.9032 173.939 85.14 173.825C85.3768 173.71 85.5859 173.545 85.7528 173.341L86.3628 174.06C86.1183 174.359 85.8101 174.598 85.4611 174.761C85.112 174.924 84.731 175.005 84.3462 175C82.7254 175 81.4449 173.812 81.4449 171.674Z" fill="#C49C62"/>
<path d="M92.7806 171.626C92.7806 169.537 93.9402 168.303 95.6139 168.303C97.2877 168.303 98.4498 169.542 98.4498 171.626C98.4498 173.711 97.2902 175 95.6139 175C93.9377 175 92.7806 173.716 92.7806 171.626ZM97.2776 171.626C97.2776 170.175 96.6248 169.299 95.6139 169.299C94.6031 169.299 93.9503 170.175 93.9503 171.626C93.9503 173.078 94.6031 174.005 95.6139 174.005C96.6248 174.005 97.2776 173.075 97.2776 171.626V171.626Z" fill="#C49C62"/>
<path d="M106.902 168.435H108.238L110.335 174.894H109.128L108.139 171.444C107.935 170.76 107.746 170.023 107.557 169.314H107.519C107.34 170.031 107.154 170.76 106.947 171.444L105.962 174.881H104.797L106.902 168.435ZM106.042 172.234H109.067V173.133H106.042V172.234Z" fill="#C49C62"/>
<path d="M116.687 171.674C116.687 169.559 118.006 168.303 119.634 168.303C119.982 168.306 120.326 168.38 120.644 168.52C120.963 168.661 121.249 168.865 121.487 169.121L120.877 169.858C120.723 169.686 120.535 169.547 120.325 169.451C120.115 169.354 119.887 169.303 119.657 169.299C118.611 169.299 117.859 170.188 117.859 171.639C117.859 173.09 118.553 174.005 119.624 174.005C119.887 174.001 120.146 173.939 120.383 173.825C120.621 173.71 120.83 173.545 120.998 173.341L121.608 174.06C121.363 174.359 121.055 174.598 120.706 174.761C120.357 174.923 119.976 175.005 119.591 175C117.97 175 116.687 173.812 116.687 171.674Z" fill="#C49C62"/>
<path d="M128.686 168.435H129.818V171.018H132.417V168.435H133.559V174.894H132.417V172.016H129.818V174.881H128.678L128.686 168.435Z" fill="#C49C62"/>
<path d="M141.201 168.435H142.341V174.894H141.201V168.435Z" fill="#C49C62"/>
<path d="M149.968 168.435H151.141L153.14 172.064L153.802 173.445H153.843C153.787 172.776 153.697 171.958 153.697 171.239V168.435H154.773V174.894H153.601L151.602 171.256L150.939 169.884H150.899C150.954 170.568 151.045 171.345 151.045 172.064V174.894H149.958L149.968 168.435Z" fill="#C49C62"/>
<path d="M162.083 171.674C162.083 169.559 163.414 168.303 165.126 168.303C165.488 168.298 165.848 168.369 166.182 168.509C166.516 168.65 166.818 168.858 167.069 169.121L166.459 169.858C166.293 169.679 166.092 169.537 165.869 169.441C165.645 169.345 165.404 169.296 165.161 169.299C164.022 169.299 163.253 170.188 163.253 171.639C163.253 173.09 163.933 174.005 165.224 174.005C165.553 174.017 165.876 173.917 166.141 173.721V172.325H164.929V171.386H167.162V174.233C166.602 174.744 165.867 175.016 165.111 174.992C163.371 175 162.083 173.812 162.083 171.674Z" fill="#C49C62"/>
</g>
<defs>
<linearGradient id="paint0_linear" x1="40.8913" y1="115.491" x2="119.24" y2="60.8935" gradientUnits="userSpaceOnUse">
<stop stop-color="#F2DDB3"/>
<stop offset="1" stop-color="#F2DDB3" stop-opacity="0"/>
</linearGradient>
<linearGradient id="paint1_linear" x1="38.8369" y1="97.2515" x2="38.8369" y2="58.3671" gradientUnits="userSpaceOnUse">
<stop stop-color="#F2E9CC" stop-opacity="0.2"/>
<stop offset="1" stop-color="#F2E9CC" stop-opacity="0.5"/>
</linearGradient>
<clipPath id="clip0">
<rect width="169" height="175" fill="white"/>
</clipPath>
</defs>
</svg>
